<?xml version="1.0" encoding="UTF-8" standalone="no"?>
<!-- Created with Inkscape (http://www.inkscape.org/) -->

<svg
   width="500"
   height="500"
   viewBox="0 0 132.29167 132.29167"
   version="1.1"
   id="svg1"
   inkscape:version="1.3.2 (091e20e, 2023-11-25, custom)"
   sodipodi:docname="icon.svg"
   xmlns:inkscape="http://www.inkscape.org/namespaces/inkscape"
   xmlns:sodipodi="http://sodipodi.sourceforge.net/DTD/sodipodi-0.dtd"
   xmlns="http://www.w3.org/2000/svg"
   xmlns:svg="http://www.w3.org/2000/svg">
  <sodipodi:namedview
     id="namedview1"
     pagecolor="#0000f0"
     bordercolor="#000000"
     borderopacity="0.25"
     inkscape:showpageshadow="2"
     inkscape:pageopacity="0.0"
     inkscape:pagecheckerboard="0"
     inkscape:deskcolor="#d1d1d1"
     inkscape:document-units="mm"
     inkscape:zoom="0.51717104"
     inkscape:cx="-106.3478"
     inkscape:cy="169.18968"
     inkscape:window-width="1920"
     inkscape:window-height="1017"
     inkscape:window-x="-8"
     inkscape:window-y="-8"
     inkscape:window-maximized="1"
     inkscape:current-layer="g54" />
  <defs
     id="defs1" />
  <g
     inkscape:label="Camada 1"
     inkscape:groupmode="layer"
     id="layer1">
    <g
       id="g55"
       transform="matrix(1.2909639,0,0,1.2819162,-87.186453,-60.700856)"
       style="stroke-width:2.5652345;stroke-dasharray:none">
      <g
         id="g54"
         style="stroke-width:2.5652345;stroke-dasharray:none">
        <path
           id="path48"
           style="font-variation-settings:'wdth' 83, 'wght' 532;fill:#0a0a0a;fill-opacity:1;stroke:#ffffff;stroke-width:2.5652345;stroke-dasharray:none"
           d="m 99.889028,64.556809 c 16.382812,-5.173054 32.417562,-7.632495 46.063252,8.533945 l -8.08466,11.150306 -34.4718,-2.722937 z"
           sodipodi:nodetypes="ccccc" />
        <path
           id="path49"
           style="font-variation-settings:'wdth' 83, 'wght' 532;fill:#0a0a0a;fill-opacity:1;stroke:#ffffff;stroke-width:2.5652345;stroke-dasharray:none"
           d="M 147.0173,94.762117 C 151.28639,124.16477 87.088808,118.52562 90.455868,94.490802 94.035538,68.938333 143.47965,70.397093 147.0173,94.762117 Z"
           sodipodi:nodetypes="sss" />
        <circle
           style="font-variation-settings:'wdth' 83, 'wght' 532;fill:#ffffff;fill-opacity:1;stroke:#0a0a0a;stroke-width:2.5652345;stroke-dasharray:none;stroke-opacity:1"
           id="circle49"
           cx="145.5761"
           cy="59.77562"
           r="22.574234"
           transform="rotate(19.152839)" />
        <path
           id="path50"
           style="font-variation-settings:'wdth' 83, 'wght' 532;fill:#ffffff;fill-opacity:1;stroke:none;stroke-width:2.5652345;stroke-dasharray:none"
           d="m 102.95674,131.94491 c -0.33647,5.7531 6.19851,8.02278 9.50056,3.29968 l -4.75028,-1.64984 z"
           sodipodi:nodetypes="cccc" />
        <path
           id="path51"
           style="font-variation-settings:'wdth' 83, 'wght' 532;fill:#ffffff;fill-opacity:1;stroke:none;stroke-width:2.5652345;stroke-dasharray:none"
           d="m 100.14105,122.31033 c -0.16824,2.87655 3.20753,8.49515 7.96129,10.1462 4.75376,1.65105 10.88551,-0.66547 12.53653,-3.02701 -8.87489,0.68421 -13.97066,-1.17939 -20.49782,-7.11919 z"
           sodipodi:nodetypes="cscc" />
        <path
           style="font-variation-settings:'wdth' 83, 'wght' 532;fill:#0a0a0a;fill-opacity:1;stroke-width:2.5652345;stroke-dasharray:none"
           d="m 116.70504,112.09346 c -0.0393,-6e-5 -0.96398,1.66982 -0.98365,1.70389 -0.0197,0.0341 -1.00334,1.66936 -0.98366,1.70342 0.0197,0.0342 1.92797,0 1.96731,0 0.0393,7e-5 1.94765,0.0342 1.96732,0 0.0197,-0.0341 -0.96399,-1.66935 -0.98366,-1.70342 -0.0197,-0.0341 -0.94431,-1.70389 -0.98366,-1.70389 z"
           id="path52" />
        <path
           style="font-variation-settings:'wdth' 83, 'wght' 532;fill:#0a0a0a;fill-opacity:1;stroke-width:2.5652345;stroke-dasharray:none"
           d="m 109.14291,98.438102 c -4.10975,0.0066 -9.691474,4.346598 -11.597782,9.855248 5.739762,-4.33165 10.910762,-7.24757 15.015982,4.22126 3.0042,-10.26518 0.44247,-14.082835 -3.4182,-14.076508 z"
           id="path53" />
        <path
           style="font-variation-settings:'wdth' 83, 'wght' 532;fill:#0a0a0a;fill-opacity:1;stroke:none;stroke-width:2.5652345;stroke-dasharray:none"
           d="m 125.90816,89.46888 c -3.87046,0.0899 -7.42455,4.716805 -7.9769,14.38224 -0.44234,7.74027 5.06475,13.65196 9.99433,13.22609 4.9296,-0.42588 9.48145,-7.18749 7.85727,-14.76834 -1.81745,-8.482832 -6.00425,-12.929893 -9.8747,-12.83999 z"
           id="path54" />
      </g>
    </g>
  </g>
</svg>
