<?xml version="1.0" encoding="UTF-8" standalone="no"?>
<!-- Created with Inkscape (http://www.inkscape.org/) -->

<svg
   width="500"
   height="450"
   viewBox="0 0 132.29166 119.0625"
   version="1.1"
   id="svg1"
   xml:space="preserve"
   inkscape:version="1.3.2 (091e20e, 2023-11-25, custom)"
   sodipodi:docname="logo_inovacode.svg"
   xmlns:inkscape="http://www.inkscape.org/namespaces/inkscape"
   xmlns:sodipodi="http://sodipodi.sourceforge.net/DTD/sodipodi-0.dtd"
   xmlns="http://www.w3.org/2000/svg"
   xmlns:svg="http://www.w3.org/2000/svg"><sodipodi:namedview
     id="namedview1"
     pagecolor="#000000"
     bordercolor="#000000"
     borderopacity="0.25"
     inkscape:showpageshadow="2"
     inkscape:pageopacity="0.0"
     inkscape:pagecheckerboard="0"
     inkscape:deskcolor="#d1d1d1"
     inkscape:document-units="mm"
     inkscape:zoom="1.0343421"
     inkscape:cx="178.37425"
     inkscape:cy="316.62639"
     inkscape:window-width="1920"
     inkscape:window-height="1017"
     inkscape:window-x="-8"
     inkscape:window-y="-8"
     inkscape:window-maximized="1"
     inkscape:current-layer="g8" /><defs
     id="defs1" /><g
     inkscape:label="Camada 1"
     inkscape:groupmode="layer"
     id="layer1"><g
       id="g8"><text
         xml:space="preserve"
         style="font-size:38.6408px;line-height:0.7;font-family:'Sadana Square';-inkscape-font-specification:'Sadana Square, @wght=532,wdth=83.0';font-variation-settings:'wdth' 83, 'wght' 532;text-align:center;text-anchor:middle;fill:#ffffff;fill-opacity:1;stroke:none;stroke-width:0.999998;stroke-dasharray:none"
         x="50.383377"
         y="30.309393"
         id="text9"
         transform="scale(0.94881062,1.0539511)"><tspan
           sodipodi:role="line"
           id="tspan9"
           style="fill:#ffffff;stroke:none;stroke-width:0.999998"
           x="50.383377"
           y="30.309393">INOVA</tspan></text><text
         xml:space="preserve"
         style="font-size:41.9355px;line-height:0.7;font-family:'Sadana Square';-inkscape-font-specification:'Sadana Square, @wght=532,wdth=83.0';font-variation-settings:'wdth' 83, 'wght' 532;text-align:center;text-anchor:middle;fill:#ffffff;fill-opacity:1;stroke:none;stroke-width:0.999997;stroke-dasharray:none"
         x="50.383377"
         y="53.042725"
         id="text10"
         transform="scale(0.94881062,1.0539511)"><tspan
           sodipodi:role="line"
           id="tspan10"
           style="stroke-width:0.999997"
           x="50.383377"
           y="53.042725">CODE</tspan></text><g
         id="g23"
         transform="matrix(0.44002707,0,0,0.44002707,-3.6890983,108.79431)"
         style="stroke-width:2.27259" /><g
         id="g47"
         transform="matrix(0.57268019,0,0,0.57093967,32.063677,-22.560936)"
         style="stroke-width:2.44836885;stroke-dasharray:none"><g
           id="g48"><path
             id="path41"
             style="font-variation-settings:'wdth' 83, 'wght' 532;fill:#000000;fill-opacity:1;stroke:#ffffff;stroke-width:2.44836885;stroke-dasharray:none"
             d="m 99.889028,64.556809 c 16.382812,-5.173054 32.417562,-7.632495 46.063252,8.533945 l -8.08466,11.150306 -34.4718,-2.722937 z"
             sodipodi:nodetypes="ccccc" /><path
             id="path42"
             style="font-variation-settings:'wdth' 83, 'wght' 532;fill:#000000;fill-opacity:1;stroke:#ffffff;stroke-width:2.44836885;stroke-dasharray:none"
             d="M 147.0173,94.762117 C 151.28639,124.16477 87.088808,118.52562 90.455868,94.490802 94.035538,68.938333 143.47965,70.397093 147.0173,94.762117 Z"
             sodipodi:nodetypes="sss" /><circle
             style="font-variation-settings:'wdth' 83, 'wght' 532;fill:#ffffff;fill-opacity:1;stroke:#000000;stroke-width:2.44836885;stroke-dasharray:none"
             id="circle42"
             cx="145.5761"
             cy="59.77562"
             r="22.574234"
             transform="rotate(19.152839)" /><path
             id="path43"
             style="font-variation-settings:'wdth' 83, 'wght' 532;fill:#ffffff;fill-opacity:1;stroke:none;stroke-width:2.44836885;stroke-dasharray:none"
             d="m 102.95674,131.94491 c -0.33647,5.7531 6.19851,8.02278 9.50056,3.29968 l -4.75028,-1.64984 z"
             sodipodi:nodetypes="cccc" /><path
             id="path44"
             style="font-variation-settings:'wdth' 83, 'wght' 532;fill:#ffffff;fill-opacity:1;stroke:none;stroke-width:2.44836885;stroke-dasharray:none"
             d="m 100.14105,122.31033 c -0.16824,2.87655 3.20753,8.49515 7.96129,10.1462 4.75376,1.65105 10.88551,-0.66547 12.53653,-3.02701 -8.87489,0.68421 -13.97066,-1.17939 -20.49782,-7.11919 z"
             sodipodi:nodetypes="cscc" /><path
             style="font-variation-settings:'wdth' 83, 'wght' 532;fill:#000000;fill-opacity:1;stroke-width:2.44836885;stroke-dasharray:none"
             d="m 116.70504,112.09346 c -0.0393,-6e-5 -0.96398,1.66982 -0.98365,1.70389 -0.0197,0.0341 -1.00334,1.66936 -0.98366,1.70342 0.0197,0.0342 1.92797,0 1.96731,0 0.0393,7e-5 1.94765,0.0342 1.96732,0 0.0197,-0.0341 -0.96399,-1.66935 -0.98366,-1.70342 -0.0197,-0.0341 -0.94431,-1.70389 -0.98366,-1.70389 z"
             id="path45" /><path
             style="font-variation-settings:'wdth' 83, 'wght' 532;fill:#000000;fill-opacity:1;stroke-width:2.44837;stroke-dasharray:none"
             d="m 109.14291,98.438102 c -4.10975,0.0066 -9.691474,4.346598 -11.597782,9.855248 5.739762,-4.33165 10.910762,-7.24757 15.015982,4.22126 3.0042,-10.26518 0.44247,-14.082835 -3.4182,-14.076508 z"
             id="path46" /><path
             style="font-variation-settings:'wdth' 83, 'wght' 532;fill:#000000;fill-opacity:1;stroke:none;stroke-width:2.44837;stroke-dasharray:none"
             d="m 125.90816,89.46888 c -3.87046,0.0899 -7.42455,4.716805 -7.9769,14.38224 -0.44234,7.74027 5.06475,13.65196 9.99433,13.22609 4.9296,-0.42588 9.48145,-7.18749 7.85727,-14.76834 -1.81745,-8.482832 -6.00425,-12.929893 -9.8747,-12.83999 z"
             id="path47" /></g></g><g
         id="g55"
         transform="matrix(0.57268019,0,0,0.57093967,-1.8726546,34.877061)"
         style="stroke-width:2.44837;stroke-dasharray:none"><g
           id="g54"><path
             id="path48"
             style="font-variation-settings:'wdth' 83, 'wght' 532;fill:#000000;fill-opacity:1;stroke:#ffffff;stroke-width:2.44837;stroke-dasharray:none"
             d="m 99.889028,64.556809 c 16.382812,-5.173054 32.417562,-7.632495 46.063252,8.533945 l -8.08466,11.150306 -34.4718,-2.722937 z"
             sodipodi:nodetypes="ccccc" /><path
             id="path49"
             style="font-variation-settings:'wdth' 83, 'wght' 532;fill:#000000;fill-opacity:1;stroke:#ffffff;stroke-width:2.44837;stroke-dasharray:none"
             d="M 147.0173,94.762117 C 151.28639,124.16477 87.088808,118.52562 90.455868,94.490802 94.035538,68.938333 143.47965,70.397093 147.0173,94.762117 Z"
             sodipodi:nodetypes="sss" /><circle
             style="font-variation-settings:'wdth' 83, 'wght' 532;fill:#ffffff;fill-opacity:1;stroke:#000000;stroke-width:2.44837;stroke-dasharray:none"
             id="circle49"
             cx="145.5761"
             cy="59.77562"
             r="22.574234"
             transform="rotate(19.152839)" /><path
             id="path50"
             style="font-variation-settings:'wdth' 83, 'wght' 532;fill:#ffffff;fill-opacity:1;stroke:none;stroke-width:2.44837;stroke-dasharray:none"
             d="m 102.95674,131.94491 c -0.33647,5.7531 6.19851,8.02278 9.50056,3.29968 l -4.75028,-1.64984 z"
             sodipodi:nodetypes="cccc" /><path
             id="path51"
             style="font-variation-settings:'wdth' 83, 'wght' 532;fill:#ffffff;fill-opacity:1;stroke:none;stroke-width:2.44837;stroke-dasharray:none"
             d="m 100.14105,122.31033 c -0.16824,2.87655 3.20753,8.49515 7.96129,10.1462 4.75376,1.65105 10.88551,-0.66547 12.53653,-3.02701 -8.87489,0.68421 -13.97066,-1.17939 -20.49782,-7.11919 z"
             sodipodi:nodetypes="cscc" /><path
             style="font-variation-settings:'wdth' 83, 'wght' 532;fill:#000000;fill-opacity:1;stroke-width:2.44837;stroke-dasharray:none"
             d="m 116.70504,112.09346 c -0.0393,-6e-5 -0.96398,1.66982 -0.98365,1.70389 -0.0197,0.0341 -1.00334,1.66936 -0.98366,1.70342 0.0197,0.0342 1.92797,0 1.96731,0 0.0393,7e-5 1.94765,0.0342 1.96732,0 0.0197,-0.0341 -0.96399,-1.66935 -0.98366,-1.70342 -0.0197,-0.0341 -0.94431,-1.70389 -0.98366,-1.70389 z"
             id="path52" /><path
             style="font-variation-settings:'wdth' 83, 'wght' 532;fill:#000000;fill-opacity:1;stroke-width:2.44837;stroke-dasharray:none"
             d="m 109.14291,98.438102 c -4.10975,0.0066 -9.691474,4.346598 -11.597782,9.855248 5.739762,-4.33165 10.910762,-7.24757 15.015982,4.22126 3.0042,-10.26518 0.44247,-14.082835 -3.4182,-14.076508 z"
             id="path53" /><path
             style="font-variation-settings:'wdth' 83, 'wght' 532;fill:#000000;fill-opacity:1;stroke:none;stroke-width:2.44837;stroke-dasharray:none"
             d="m 125.90816,89.46888 c -3.87046,0.0899 -7.42455,4.716805 -7.9769,14.38224 -0.44234,7.74027 5.06475,13.65196 9.99433,13.22609 4.9296,-0.42588 9.48145,-7.18749 7.85727,-14.76834 -1.81745,-8.482832 -6.00425,-12.929893 -9.8747,-12.83999 z"
             id="path54" /></g></g><g
         id="g62"
         transform="matrix(0.57268019,0,0,0.57093967,40.921429,34.778607)"
         style="stroke-width:2.44837;stroke-dasharray:none"><g
           id="g61"><path
             id="path55"
             style="font-variation-settings:'wdth' 83, 'wght' 532;fill:#ffffff;fill-opacity:1;stroke:#000000;stroke-width:2.44837;stroke-dasharray:none"
             d="m 99.889028,64.556809 c 16.382812,-5.173054 32.417562,-7.632495 46.063252,8.533945 l -8.08466,11.150306 -34.4718,-2.722937 z"
             sodipodi:nodetypes="ccccc" /><path
             id="path56"
             style="font-variation-settings:'wdth' 83, 'wght' 532;fill:#ffffff;fill-opacity:1;stroke:#000000;stroke-width:2.44837;stroke-dasharray:none"
             d="M 147.0173,94.762117 C 151.28639,124.16477 87.088808,118.52562 90.455868,94.490802 94.035538,68.938333 143.47965,70.397093 147.0173,94.762117 Z"
             sodipodi:nodetypes="sss" /><circle
             style="font-variation-settings:'wdth' 83, 'wght' 532;fill:#000000;fill-opacity:1;stroke:#ffffff;stroke-width:2.44837;stroke-dasharray:none"
             id="circle56"
             cx="145.5761"
             cy="59.77562"
             r="22.574234"
             transform="rotate(19.152839)" /><path
             id="path57"
             style="font-variation-settings:'wdth' 83, 'wght' 532;fill:#ffffff;fill-opacity:1;stroke:none;stroke-width:2.44837;stroke-dasharray:none"
             d="m 102.95674,131.94491 c -0.33647,5.7531 6.19851,8.02278 9.50056,3.29968 l -4.75028,-1.64984 z"
             sodipodi:nodetypes="cccc" /><path
             id="path58"
             style="font-variation-settings:'wdth' 83, 'wght' 532;fill:#ffffff;fill-opacity:1;stroke:none;stroke-width:2.44837;stroke-dasharray:none"
             d="m 100.14105,122.31033 c -0.16824,2.87655 3.20753,8.49515 7.96129,10.1462 4.75376,1.65105 10.88551,-0.66547 12.53653,-3.02701 -8.87489,0.68421 -13.97066,-1.17939 -20.49782,-7.11919 z"
             sodipodi:nodetypes="cscc" /><path
             style="font-variation-settings:'wdth' 83, 'wght' 532;fill:#ffffff;fill-opacity:1;stroke-width:2.44837;stroke-dasharray:none"
             d="m 116.70504,112.09346 c -0.0393,-6e-5 -0.96398,1.66982 -0.98365,1.70389 -0.0197,0.0341 -1.00334,1.66936 -0.98366,1.70342 0.0197,0.0342 1.92797,0 1.96731,0 0.0393,7e-5 1.94765,0.0342 1.96732,0 0.0197,-0.0341 -0.96399,-1.66935 -0.98366,-1.70342 -0.0197,-0.0341 -0.94431,-1.70389 -0.98366,-1.70389 z"
             id="path59" /><path
             style="font-variation-settings:'wdth' 83, 'wght' 532;fill:#ffffff;fill-opacity:1;stroke-width:2.44837;stroke-dasharray:none"
             d="m 109.14291,98.438102 c -4.10975,0.0066 -9.691474,4.346598 -11.597782,9.855248 5.739762,-4.33165 10.910762,-7.24757 15.015982,4.22126 3.0042,-10.26518 0.44247,-14.082835 -3.4182,-14.076508 z"
             id="path60" /><path
             style="font-variation-settings:'wdth' 83, 'wght' 532;fill:#ffffff;fill-opacity:1;stroke:none;stroke-width:2.44837;stroke-dasharray:none"
             d="m 125.90816,89.46888 c -3.87046,0.0899 -7.42455,4.716805 -7.9769,14.38224 -0.44234,7.74027 5.06475,13.65196 9.99433,13.22609 4.9296,-0.42588 9.48145,-7.18749 7.85727,-14.76834 -1.81745,-8.482832 -6.00425,-12.929893 -9.8747,-12.83999 z"
             id="path61" /></g></g><g
         id="g69"
         transform="matrix(0.57268019,0,0,0.57093967,-41.804317,34.975515)"
         style="stroke-width:2.44837;stroke-dasharray:none"><g
           id="g68"><path
             id="path62"
             style="font-variation-settings:'wdth' 83, 'wght' 532;fill:#434343;fill-opacity:1;stroke:none;stroke-width:2.44837;stroke-dasharray:none"
             d="m 99.889028,64.556809 c 16.382812,-5.173054 32.417562,-7.632495 46.063252,8.533945 l -8.08466,11.150306 -34.4718,-2.722937 z"
             sodipodi:nodetypes="ccccc" /><path
             id="path63"
             style="font-variation-settings:'wdth' 83, 'wght' 532;fill:#434343;fill-opacity:1;stroke:none;stroke-width:2.44837;stroke-dasharray:none"
             d="M 147.0173,94.762117 C 151.28639,124.16477 87.088808,118.52562 90.455868,94.490802 94.035538,68.938333 143.47965,70.397093 147.0173,94.762117 Z"
             sodipodi:nodetypes="sss" /><circle
             style="font-variation-settings:'wdth' 83, 'wght' 532;fill:#ffffff;fill-opacity:1;stroke:none;stroke-width:2.44837;stroke-dasharray:none"
             id="circle63"
             cx="145.5761"
             cy="59.77562"
             r="22.574234"
             transform="rotate(19.152839)" /><path
             id="path64"
             style="font-variation-settings:'wdth' 83, 'wght' 532;fill:#adadad;fill-opacity:1;stroke:none;stroke-width:2.44837;stroke-dasharray:none"
             d="m 102.95674,131.94491 c -0.33647,5.7531 6.19851,8.02278 9.50056,3.29968 l -4.75028,-1.64984 z"
             sodipodi:nodetypes="cccc" /><path
             id="path65"
             style="font-variation-settings:'wdth' 83, 'wght' 532;fill:#adadad;fill-opacity:1;stroke:none;stroke-width:2.44837;stroke-dasharray:none"
             d="m 100.14105,122.31033 c -0.16824,2.87655 3.20753,8.49515 7.96129,10.1462 4.75376,1.65105 10.88551,-0.66547 12.53653,-3.02701 -8.87489,0.68421 -13.97066,-1.17939 -20.49782,-7.11919 z"
             sodipodi:nodetypes="cscc" /><path
             style="font-variation-settings:'wdth' 83, 'wght' 532;fill:#000000;fill-opacity:1;stroke-width:2.44837;stroke-dasharray:none"
             d="m 116.70504,112.09346 c -0.0393,-6e-5 -0.96398,1.66982 -0.98365,1.70389 -0.0197,0.0341 -1.00334,1.66936 -0.98366,1.70342 0.0197,0.0342 1.92797,0 1.96731,0 0.0393,7e-5 1.94765,0.0342 1.96732,0 0.0197,-0.0341 -0.96399,-1.66935 -0.98366,-1.70342 -0.0197,-0.0341 -0.94431,-1.70389 -0.98366,-1.70389 z"
             id="path66" /><path
             style="font-variation-settings:'wdth' 83, 'wght' 532;fill:#000000;fill-opacity:1;stroke-width:2.44837;stroke-dasharray:none"
             d="m 109.14291,98.438102 c -4.10975,0.0066 -9.691474,4.346598 -11.597782,9.855248 5.739762,-4.33165 10.910762,-7.24757 15.015982,4.22126 3.0042,-10.26518 0.44247,-14.082835 -3.4182,-14.076508 z"
             id="path67" /><path
             style="font-variation-settings:'wdth' 83, 'wght' 532;fill:#000000;fill-opacity:1;stroke:none;stroke-width:2.44837;stroke-dasharray:none"
             d="m 125.90816,89.46888 c -3.87046,0.0899 -7.42455,4.716805 -7.9769,14.38224 -0.44234,7.74027 5.06475,13.65196 9.99433,13.22609 4.9296,-0.42588 9.48145,-7.18749 7.85727,-14.76834 -1.81745,-8.482832 -6.00425,-12.929893 -9.8747,-12.83999 z"
             id="path68" /></g></g></g></g></svg>
