<?xml version="1.0" encoding="UTF-8" standalone="no"?>
<!-- Created with Inkscape (http://www.inkscape.org/) -->

<svg
   width="130mm"
   height="130mm"
   viewBox="0 0 130 130"
   version="1.1"
   id="svg1"
   xml:space="preserve"
   inkscape:export-filename="new_inova.png"
   inkscape:export-xdpi="96"
   inkscape:export-ydpi="96"
   inkscape:version="1.3.2 (091e20e, 2023-11-25, custom)"
   sodipodi:docname="new_inova.svg"
   xmlns:inkscape="http://www.inkscape.org/namespaces/inkscape"
   xmlns:sodipodi="http://sodipodi.sourceforge.net/DTD/sodipodi-0.dtd"
   xmlns="http://www.w3.org/2000/svg"
   xmlns:svg="http://www.w3.org/2000/svg"><sodipodi:namedview
     id="namedview1"
     pagecolor="#000000"
     bordercolor="#000000"
     borderopacity="0.25"
     inkscape:showpageshadow="2"
     inkscape:pageopacity="0.0"
     inkscape:pagecheckerboard="0"
     inkscape:deskcolor="#d1d1d1"
     inkscape:document-units="mm"
     inkscape:export-bgcolor="#000000ff"
     inkscape:zoom="0.73139029"
     inkscape:cx="142.19494"
     inkscape:cy="401.29053"
     inkscape:window-width="1920"
     inkscape:window-height="1017"
     inkscape:window-x="-8"
     inkscape:window-y="-8"
     inkscape:window-maximized="1"
     inkscape:current-layer="g80" /><defs
     id="defs1" /><g
     inkscape:label="Camada 1"
     inkscape:groupmode="layer"
     id="layer1"><text
       xml:space="preserve"
       style="font-size:46.7131px;line-height:0.7;font-family:'Sadana Square';-inkscape-font-specification:'Sadana Square, @wght=532,wdth=83.0';font-variation-settings:'wdth' 83, 'wght' 532;text-align:center;text-anchor:middle;fill:#ffffff;fill-opacity:1;stroke:none;stroke-width:0.999998;stroke-dasharray:none"
       x="46.845024"
       y="28.792002"
       id="text9"
       transform="scale(0.94881062,1.0539511)"><tspan
         sodipodi:role="line"
         id="tspan9"
         style="fill:#ffffff;stroke:none;stroke-width:0.999998"
         x="46.845024"
         y="28.792002">INOVA</tspan></text><text
       xml:space="preserve"
       style="font-size:50.6962px;line-height:0.7;font-family:'Sadana Square';-inkscape-font-specification:'Sadana Square, @wght=532,wdth=83.0';font-variation-settings:'wdth' 83, 'wght' 532;text-align:center;text-anchor:middle;fill:#ffffff;fill-opacity:1;stroke:none;stroke-width:0.999996;stroke-dasharray:none"
       x="46.845024"
       y="56.274502"
       id="text10"
       transform="scale(0.94881062,1.0539511)"><tspan
         sodipodi:role="line"
         id="tspan10"
         style="stroke-width:0.999996"
         x="46.845024"
         y="56.274502">CODE</tspan></text><rect
       style="fill:#0c0c0c;fill-opacity:1;stroke:none;stroke-width:1.4;stroke-dasharray:none;stroke-opacity:1"
       id="rect6"
       width="130"
       height="63.073883"
       x="2.4496231e-08"
       y="66.926109" /><text
       xml:space="preserve"
       style="font-size:46.7131px;line-height:0.7;font-family:'Sadana Square';-inkscape-font-specification:'Sadana Square, @wght=532,wdth=83.0';font-variation-settings:'wdth' 83, 'wght' 532;text-align:center;text-anchor:middle;fill:#ffffff;fill-opacity:1;stroke:none;stroke-width:0.999998;stroke-dasharray:none"
       x="46.845024"
       y="91.288383"
       id="text12"
       transform="scale(0.94881062,1.0539511)"><tspan
         sodipodi:role="line"
         id="tspan12"
         style="fill:#ffffff;stroke:none;stroke-width:0.999998"
         x="46.845024"
         y="91.288383">INOVA</tspan></text><text
       xml:space="preserve"
       style="font-size:50.6962px;line-height:0.7;font-family:'Sadana Square';-inkscape-font-specification:'Sadana Square, @wght=532,wdth=83.0';font-variation-settings:'wdth' 83, 'wght' 532;text-align:center;text-anchor:middle;fill:#ffffff;fill-opacity:1;stroke:none;stroke-width:0.999996;stroke-dasharray:none"
       x="46.845024"
       y="118.77089"
       id="text13"
       transform="scale(0.94881062,1.0539511)"><tspan
         sodipodi:role="line"
         id="tspan13"
         style="stroke-width:0.999996"
         x="46.845024"
         y="118.77089">CODE</tspan></text><g
       id="g31"
       transform="translate(2.1166667,-0.03646088)" /><g
       id="g39"
       transform="translate(56.240289,2.8575708)"
       style="stroke-width:7.1;stroke-dasharray:none" /><g
       id="g40"
       transform="matrix(0.93987147,0,0,0.94246014,63.7817,1.8382523)"
       style="stroke-width:1.06251"><path
         id="path31"
         style="fill:#ffffff;stroke:#ffffff;stroke-width:7.54384;stroke-dasharray:none"
         d="m 32.61857,12.021264 c 8.126877,-5.7974729 16.143145,-5.4404539 24.068075,0 l -1.77282,19.279419 H 34.391383 Z"
         sodipodi:nodetypes="ccccc" /><ellipse
         style="fill:#ffffff;stroke:#ffffff;stroke-width:7.54384;stroke-dasharray:none"
         id="ellipse31"
         cx="44.653431"
         cy="32.576462"
         rx="16.482824"
         ry="10.186946" /><path
         id="path32"
         style="font-variation-settings:'wdth' 83, 'wght' 532;fill:#ffffff;fill-opacity:1;stroke:#ffffff;stroke-width:4.7813;stroke-dasharray:none"
         d="m 41.774595,56.306269 c 0.90606,3.163109 4.86648,3.146331 5.75767,-0.02438 -1.81921,1.348301 -3.72546,1.530293 -5.75767,0.02438 z"
         sodipodi:nodetypes="ccc" /><ellipse
         style="font-variation-settings:'wdth' 83, 'wght' 532;fill:#ffffff;fill-opacity:1;stroke:#ffffff;stroke-width:3.71879;stroke-dasharray:none"
         id="ellipse34"
         cx="47.410164"
         cy="35.925438"
         transform="matrix(0.99744222,0.07147744,-0.07335927,0.99730558,0,0)"
         rx="12.923594"
         ry="12.892761" /><path
         id="path35"
         style="font-variation-settings:'wdth' 83, 'wght' 532;fill:#ffffff;fill-opacity:1;stroke:#ffffff;stroke-width:3.71879;stroke-dasharray:none"
         d="m 38.442187,51.53904 c 0.44725,1.583201 3.325088,3.980275 6.206058,3.978595 2.88096,-0.0017 5.76505,-2.402124 6.21643,-3.985837 -4.67371,2.034847 -7.7795,1.98607 -12.422488,0.0072 z"
         sodipodi:nodetypes="cscc" /><path
         id="path36"
         style="font-variation-settings:'wdth' 83, 'wght' 532;fill:#ffffff;fill-opacity:1;stroke:#ffffff;stroke-width:4.7813;stroke-dasharray:none"
         d="m 38.442187,51.53904 c 0.44725,1.583201 3.325088,3.980275 6.206058,3.978595 2.88096,-0.0017 5.76505,-2.402124 6.21643,-3.985837 -4.67371,2.034847 -7.7795,1.98607 -12.422488,0.0072 z"
         sodipodi:nodetypes="cscc" /><g
         id="g16"
         transform="translate(-58.312204,-0.01059817)"
         style="stroke-width:1.06251"><path
           id="path8-4"
           style="fill:#000000;stroke:#000000;stroke-width:5.31257;stroke-dasharray:none"
           d="m 90.930775,12.031862 c 8.126877,-5.7974728 16.143145,-5.4404538 24.068075,0 l -1.77282,19.279419 H 92.703588 Z"
           sodipodi:nodetypes="ccccc" /><ellipse
           style="fill:#000000;stroke:#000000;stroke-width:5.31257;stroke-dasharray:none"
           id="ellipse8-7"
           cx="102.96564"
           cy="32.587059"
           rx="16.482824"
           ry="10.186946" /><path
           id="path9-2"
           style="font-variation-settings:'wdth' 83, 'wght' 532;fill:#ffffff;fill-opacity:1;stroke:#000000;stroke-width:2.55003;stroke-dasharray:none"
           d="m 100.0868,56.316867 c 0.90606,3.163109 4.86648,3.146331 5.75767,-0.02438 -1.81921,1.348301 -3.72546,1.530293 -5.75767,0.02438 z"
           sodipodi:nodetypes="ccc" /><path
           id="path10-2"
           style="fill:#000000;stroke:#ffffff;stroke-width:1.48752;stroke-dasharray:none"
           d="m 90.930775,12.031862 c 8.126877,-5.7974728 16.143145,-5.4404538 24.068075,0 l -1.77282,19.279419 H 92.703588 Z"
           sodipodi:nodetypes="ccccc" /><ellipse
           style="fill:#000000;stroke:#ffffff;stroke-width:1.48752;stroke-dasharray:none"
           id="ellipse10-5"
           cx="102.96564"
           cy="32.587059"
           rx="16.482824"
           ry="10.186946" /><ellipse
           style="font-variation-settings:'wdth' 83, 'wght' 532;fill:#ffffff;fill-opacity:1;stroke:#000000;stroke-width:1.48752;stroke-dasharray:none"
           id="ellipse11-2"
           cx="105.56613"
           cy="31.767996"
           transform="matrix(0.99744222,0.07147744,-0.07335927,0.99730558,0,0)"
           rx="12.923594"
           ry="12.892761" /><path
           id="path11-3"
           style="font-variation-settings:'wdth' 83, 'wght' 532;fill:#ffffff;fill-opacity:1;stroke:none;stroke-width:1.48752;stroke-dasharray:none"
           d="m 100.0868,56.316867 c 0.90606,3.163109 4.86648,3.146331 5.75767,-0.02438 -1.81921,1.348301 -3.72546,1.530293 -5.75767,0.02438 z"
           sodipodi:nodetypes="ccc" /><path
           id="path12-7"
           style="font-variation-settings:'wdth' 83, 'wght' 532;fill:#ffffff;fill-opacity:1;stroke:#000000;stroke-width:2.55003;stroke-dasharray:none"
           d="m 96.754392,51.549638 c 0.44725,1.583201 3.325088,3.980275 6.206058,3.978595 2.88096,-0.0017 5.76505,-2.402124 6.21643,-3.985837 -4.67371,2.034847 -7.7795,1.98607 -12.422488,0.0072 z"
           sodipodi:nodetypes="cscc" /><path
           id="path13"
           style="font-variation-settings:'wdth' 83, 'wght' 532;fill:#ffffff;fill-opacity:1;stroke:none;stroke-width:1.48752;stroke-dasharray:none"
           d="m 96.754392,51.549638 c 0.44725,1.583201 3.325088,3.980275 6.206058,3.978595 2.88096,-0.0017 5.76505,-2.402124 6.21643,-3.985837 -4.67371,2.034847 -7.7795,1.98607 -12.422488,0.0072 z"
           sodipodi:nodetypes="cscc" /><path
           style="font-variation-settings:'wdth' 83, 'wght' 532;fill:#656565;fill-opacity:1;stroke-width:1.48752;stroke-dasharray:none"
           d="m 99.755802,41.111309 c -1.82752,1.380113 -5.36303,1.024199 -7.337186,0.275368 0.624578,2.505039 1.616976,4.317815 2.773756,4.427383 1.78658,0.169222 3.83997,-2.628007 4.56343,-4.702751 z"
           id="path14"
           sodipodi:nodetypes="ccsc" /><ellipse
           style="fill:#000000;stroke:none;stroke-width:3.18754"
           id="ellipse14"
           cx="-103.11481"
           cy="10.968558"
           rx="4.2507362"
           ry="7.5305061"
           transform="matrix(-0.96592582,-0.25881905,-0.25881905,0.96592582,0,0)" /><path
           style="font-variation-settings:'wdth' 83, 'wght' 532;fill:#656565;fill-opacity:1;stroke-width:1.48752;stroke-dasharray:none"
           d="m 106.19728,41.057365 c 1.82752,1.380113 5.36303,1.024199 7.33719,0.275368 -0.62458,2.505039 -1.63878,4.438253 -2.79556,4.547821 -1.78658,0.169222 -3.81817,-2.748445 -4.54163,-4.823189 z"
           id="path15"
           sodipodi:nodetypes="ccsc" /><ellipse
           style="fill:#000000;stroke:none;stroke-width:3.18754"
           id="ellipse15"
           cx="95.886002"
           cy="64.290665"
           rx="4.2507362"
           ry="7.5305061"
           transform="rotate(-15)" /><path
           sodipodi:type="star"
           style="fill:#000000;stroke:none;stroke-width:4.81407"
           id="path16"
           inkscape:flatsided="true"
           sodipodi:sides="3"
           sodipodi:cx="65.545296"
           sodipodi:cy="40.60688"
           sodipodi:r1="2.3499987"
           sodipodi:r2="1.8959759"
           sodipodi:arg1="-1.5707963"
           sodipodi:arg2="-0.52359878"
           inkscape:rounded="0.05"
           inkscape:randomized="0"
           d="m 65.545296,38.256881 c 0.203516,0 2.136916,3.348749 2.035158,3.524999 -0.101758,0.176249 -3.968559,0.176249 -4.070317,-10e-7 -0.101758,-0.176249 1.831643,-3.524998 2.035159,-3.524998 z"
           inkscape:transform-center-y="-0.15031195"
           transform="matrix(0.66213049,0,0,0.66213049,59.566103,15.780261)" /></g></g><g
       id="g81"
       transform="matrix(0.93987147,0,0,0.94246014,63.7817,68.011572)"
       style="stroke-width:1.06251"><path
         id="path68"
         style="fill:#ffffff;stroke:#ffffff;stroke-width:7.54384;stroke-dasharray:none"
         d="m 32.61857,12.021264 c 8.126877,-5.7974729 16.143145,-5.4404539 24.068075,0 l -1.77282,19.279419 H 34.391383 Z"
         sodipodi:nodetypes="ccccc" /><ellipse
         style="fill:#ffffff;stroke:#ffffff;stroke-width:7.54384;stroke-dasharray:none"
         id="ellipse68"
         cx="44.653431"
         cy="32.576462"
         rx="16.482824"
         ry="10.186946" /><path
         id="path69"
         style="font-variation-settings:'wdth' 83, 'wght' 532;fill:#ffffff;fill-opacity:1;stroke:#ffffff;stroke-width:4.7813;stroke-dasharray:none"
         d="m 41.774595,56.306269 c 0.90606,3.163109 4.86648,3.146331 5.75767,-0.02438 -1.81921,1.348301 -3.72546,1.530293 -5.75767,0.02438 z"
         sodipodi:nodetypes="ccc" /><ellipse
         style="font-variation-settings:'wdth' 83, 'wght' 532;fill:#ffffff;fill-opacity:1;stroke:#ffffff;stroke-width:3.71879;stroke-dasharray:none"
         id="ellipse69"
         cx="47.410164"
         cy="35.925438"
         transform="matrix(0.99744222,0.07147744,-0.07335927,0.99730558,0,0)"
         rx="12.923594"
         ry="12.892761" /><path
         id="path70"
         style="font-variation-settings:'wdth' 83, 'wght' 532;fill:#ffffff;fill-opacity:1;stroke:#ffffff;stroke-width:3.71879;stroke-dasharray:none"
         d="m 38.442187,51.53904 c 0.44725,1.583201 3.325088,3.980275 6.206058,3.978595 2.88096,-0.0017 5.76505,-2.402124 6.21643,-3.985837 -4.67371,2.034847 -7.7795,1.98607 -12.422488,0.0072 z"
         sodipodi:nodetypes="cscc" /><path
         id="path71"
         style="font-variation-settings:'wdth' 83, 'wght' 532;fill:#ffffff;fill-opacity:1;stroke:#ffffff;stroke-width:4.7813;stroke-dasharray:none"
         d="m 38.442187,51.53904 c 0.44725,1.583201 3.325088,3.980275 6.206058,3.978595 2.88096,-0.0017 5.76505,-2.402124 6.21643,-3.985837 -4.67371,2.034847 -7.7795,1.98607 -12.422488,0.0072 z"
         sodipodi:nodetypes="cscc" /><g
         id="g80"
         transform="translate(-58.312204,-0.01059817)"
         style="stroke-width:1.06251"><path
           id="path72"
           style="fill:#0c0c0c;stroke:#0c0c0c;stroke-width:5.31257;stroke-dasharray:none;fill-opacity:1;stroke-opacity:1"
           d="m 90.930775,12.031862 c 8.126877,-5.7974728 16.143145,-5.4404538 24.068075,0 l -1.77282,19.279419 H 92.703588 Z"
           sodipodi:nodetypes="ccccc" /><ellipse
           style="fill:#0c0c0c;stroke:#0c0c0c;stroke-width:5.31257;stroke-dasharray:none;fill-opacity:1;stroke-opacity:1"
           id="ellipse72"
           cx="102.96564"
           cy="32.587059"
           rx="16.482824"
           ry="10.186946" /><path
           id="path73"
           style="font-variation-settings:'wdth' 83, 'wght' 532;fill:#0c0c0c;fill-opacity:1;stroke:#0c0c0c;stroke-width:2.55003;stroke-dasharray:none;stroke-opacity:1"
           d="m 100.0868,56.316867 c 0.90606,3.163109 4.86648,3.146331 5.75767,-0.02438 -1.81921,1.348301 -3.72546,1.530293 -5.75767,0.02438 z"
           sodipodi:nodetypes="ccc" /><path
           id="path74"
           style="fill:#0c0c0c;stroke:#ffffff;stroke-width:1.48752;stroke-dasharray:none;fill-opacity:1"
           d="m 90.930775,12.031862 c 8.126877,-5.7974728 16.143145,-5.4404538 24.068075,0 l -1.77282,19.279419 H 92.703588 Z"
           sodipodi:nodetypes="ccccc" /><ellipse
           style="fill:#0c0c0c;stroke:#ffffff;stroke-width:1.48752;stroke-dasharray:none;fill-opacity:1"
           id="ellipse74"
           cx="102.96564"
           cy="32.587059"
           rx="16.482824"
           ry="10.186946" /><ellipse
           style="font-variation-settings:'wdth' 83, 'wght' 532;fill:#ffffff;fill-opacity:1;stroke:#0c0c0c;stroke-width:1.48752;stroke-dasharray:none;stroke-opacity:1"
           id="ellipse75"
           cx="105.56613"
           cy="31.767996"
           transform="matrix(0.99744222,0.07147744,-0.07335927,0.99730558,0,0)"
           rx="12.923594"
           ry="12.892761" /><path
           id="path75"
           style="font-variation-settings:'wdth' 83, 'wght' 532;fill:#ffffff;fill-opacity:1;stroke:none;stroke-width:1.48752;stroke-dasharray:none"
           d="m 100.0868,56.316867 c 0.90606,3.163109 4.86648,3.146331 5.75767,-0.02438 -1.81921,1.348301 -3.72546,1.530293 -5.75767,0.02438 z"
           sodipodi:nodetypes="ccc" /><path
           id="path76"
           style="font-variation-settings:'wdth' 83, 'wght' 532;fill:#0c0c0c;fill-opacity:1;stroke:#0c0c0c;stroke-width:2.55003;stroke-dasharray:none;stroke-opacity:1"
           d="m 96.754392,51.549638 c 0.44725,1.583201 3.325088,3.980275 6.206058,3.978595 2.88096,-0.0017 5.76505,-2.402124 6.21643,-3.985837 -4.67371,2.034847 -7.7795,1.98607 -12.422488,0.0072 z"
           sodipodi:nodetypes="cscc" /><path
           id="path77"
           style="font-variation-settings:'wdth' 83, 'wght' 532;fill:#ffffff;fill-opacity:1;stroke:none;stroke-width:1.48752;stroke-dasharray:none"
           d="m 96.754392,51.549638 c 0.44725,1.583201 3.325088,3.980275 6.206058,3.978595 2.88096,-0.0017 5.76505,-2.402124 6.21643,-3.985837 -4.67371,2.034847 -7.7795,1.98607 -12.422488,0.0072 z"
           sodipodi:nodetypes="cscc" /><path
           style="font-variation-settings:'wdth' 83, 'wght' 532;fill:#656565;fill-opacity:1;stroke-width:1.48752;stroke-dasharray:none"
           d="m 99.755802,41.111309 c -1.82752,1.380113 -5.36303,1.024199 -7.337186,0.275368 0.624578,2.505039 1.616976,4.317815 2.773756,4.427383 1.78658,0.169222 3.83997,-2.628007 4.56343,-4.702751 z"
           id="path78"
           sodipodi:nodetypes="ccsc" /><ellipse
           style="fill:#0c0c0c;stroke:none;stroke-width:3.18754;fill-opacity:1"
           id="ellipse78"
           cx="-103.11481"
           cy="10.968558"
           rx="4.2507362"
           ry="7.5305061"
           transform="matrix(-0.96592582,-0.25881905,-0.25881905,0.96592582,0,0)" /><path
           style="font-variation-settings:'wdth' 83, 'wght' 532;fill:#656565;fill-opacity:1;stroke-width:1.48752;stroke-dasharray:none"
           d="m 106.19728,41.057365 c 1.82752,1.380113 5.36303,1.024199 7.33719,0.275368 -0.62458,2.505039 -1.63878,4.438253 -2.79556,4.547821 -1.78658,0.169222 -3.81817,-2.748445 -4.54163,-4.823189 z"
           id="path79"
           sodipodi:nodetypes="ccsc" /><ellipse
           style="fill:#0c0c0c;stroke:none;stroke-width:3.18754;fill-opacity:1"
           id="ellipse79"
           cx="95.886002"
           cy="64.290665"
           rx="4.2507362"
           ry="7.5305061"
           transform="rotate(-15)" /><path
           sodipodi:type="star"
           style="fill:#000000;stroke:none;stroke-width:4.81407"
           id="path80"
           inkscape:flatsided="true"
           sodipodi:sides="3"
           sodipodi:cx="65.545296"
           sodipodi:cy="40.60688"
           sodipodi:r1="2.3499987"
           sodipodi:r2="1.8959759"
           sodipodi:arg1="-1.5707963"
           sodipodi:arg2="-0.52359878"
           inkscape:rounded="0.05"
           inkscape:randomized="0"
           d="m 65.545296,38.256881 c 0.203516,0 2.136916,3.348749 2.035158,3.524999 -0.101758,0.176249 -3.968559,0.176249 -4.070317,-10e-7 -0.101758,-0.176249 1.831643,-3.524998 2.035159,-3.524998 z"
           inkscape:transform-center-y="-0.15031195"
           transform="matrix(0.66213049,0,0,0.66213049,59.566103,15.780261)" /></g></g></g></svg>
