<?xml version="1.0" encoding="UTF-8" standalone="no"?>
<!-- Created with Inkscape (http://www.inkscape.org/) -->

<svg
   version="1.1"
   id="svg1"
   width="884.79999"
   height="1266.88"
   viewBox="0 0 884.79999 1266.88"
   sodipodi:docname="camisa_frente.svg"
   inkscape:version="1.3.2 (091e20e, 2023-11-25, custom)"
   xmlns:inkscape="http://www.inkscape.org/namespaces/inkscape"
   xmlns:sodipodi="http://sodipodi.sourceforge.net/DTD/sodipodi-0.dtd"
   xmlns="http://www.w3.org/2000/svg"
   xmlns:svg="http://www.w3.org/2000/svg">
  <defs
     id="defs1" />
  <sodipodi:namedview
     id="namedview1"
     pagecolor="#ffffff"
     bordercolor="#000000"
     borderopacity="0.25"
     inkscape:showpageshadow="2"
     inkscape:pageopacity="0.0"
     inkscape:pagecheckerboard="0"
     inkscape:deskcolor="#d1d1d1"
     inkscape:zoom="0.32402437"
     inkscape:cx="57.09447"
     inkscape:cy="433.60936"
     inkscape:window-width="1920"
     inkscape:window-height="1017"
     inkscape:window-x="-8"
     inkscape:window-y="-8"
     inkscape:window-maximized="1"
     inkscape:current-layer="g1" />
  <g
     inkscape:groupmode="layer"
     inkscape:label="Image"
     id="g1">
    <rect
       style="fill:#0c0c0c;fill-opacity:1;stroke-width:27"
       id="rect1"
       width="884.79999"
       height="1266.88"
       x="0"
       y="0" />
    <path
       id="path68"
       style="fill:#ffffff;stroke:#ffffff;stroke-width:26.8346;stroke-dasharray:none"
       d="m 593.41113,319.93312 c 20.26977,-14.83845 40.26366,-13.92467 60.02973,0 l -4.4217,49.3451 h -51.18634 z"
       sodipodi:nodetypes="ccccc" />
    <ellipse
       style="fill:#ffffff;stroke:#ffffff;stroke-width:26.8346;stroke-dasharray:none"
       id="ellipse68"
       cx="623.42804"
       cy="372.54358"
       rx="41.110863"
       ry="26.073177" />
    <path
       id="path69"
       style="font-variation-settings:'wdth' 83, 'wght' 532;fill:#ffffff;fill-opacity:1;stroke:#ffffff;stroke-width:17.0078;stroke-dasharray:none"
       d="m 616.24776,433.27925 c 2.25986,8.09587 12.1378,8.05294 14.36057,-0.0625 -4.53741,3.45093 -9.29191,3.91673 -14.36057,0.0625 z"
       sodipodi:nodetypes="ccc" />
    <ellipse
       style="font-variation-settings:'wdth' 83, 'wght' 532;fill:#ffffff;fill-opacity:1;stroke:#ffffff;stroke-width:13.2283;stroke-dasharray:none"
       id="ellipse69"
       cx="649.68481"
       cy="342.77078"
       transform="matrix(0.99730707,0.07333901,-0.07149718,0.9974408,0,0)"
       rx="32.23793"
       ry="32.994152" />
    <path
       id="path70"
       style="font-variation-settings:'wdth' 83, 'wght' 532;fill:#ffffff;fill-opacity:1;stroke:#ffffff;stroke-width:13.2283;stroke-dasharray:none"
       d="m 607.93619,421.07767 c 1.11551,4.05216 8.29332,10.18739 15.47893,10.18309 7.18558,-0.004 14.37897,-6.14816 15.50479,-10.20163 -11.657,5.20814 -19.40334,5.08329 -30.98372,0.0185 z"
       sodipodi:nodetypes="cscc" />
    <path
       id="path71"
       style="font-variation-settings:'wdth' 83, 'wght' 532;fill:#ffffff;fill-opacity:1;stroke:#ffffff;stroke-width:17.0078;stroke-dasharray:none"
       d="m 607.93619,421.07767 c 1.11551,4.05216 8.29332,10.18739 15.47893,10.18309 7.18558,-0.004 14.37897,-6.14816 15.50479,-10.20163 -11.657,5.20814 -19.40334,5.08329 -30.98372,0.0185 z"
       sodipodi:nodetypes="cscc" />
    <path
       id="path72"
       style="fill:#0c0c0c;fill-opacity:1;stroke:#0c0c0c;stroke-width:18.8976;stroke-dasharray:none;stroke-opacity:1"
       d="m 593.41114,319.93312 c 20.26977,-14.83845 40.26365,-13.92467 60.02973,0 l -4.4217,49.3451 h -51.18634 z"
       sodipodi:nodetypes="ccccc" />
    <ellipse
       style="fill:#0c0c0c;fill-opacity:1;stroke:#0c0c0c;stroke-width:18.8976;stroke-dasharray:none;stroke-opacity:1"
       id="ellipse72"
       cx="623.42804"
       cy="372.54358"
       rx="41.110863"
       ry="26.073177" />
    <path
       id="path73"
       style="font-variation-settings:'wdth' 83, 'wght' 532;fill:#0c0c0c;fill-opacity:1;stroke:#0c0c0c;stroke-width:9.07084;stroke-dasharray:none;stroke-opacity:1"
       d="m 616.24778,433.27925 c 2.25985,8.09587 12.13779,8.05294 14.36057,-0.0625 -4.53742,3.45093 -9.29191,3.91673 -14.36057,0.0625 z"
       sodipodi:nodetypes="ccc" />
    <path
       id="path74"
       style="fill:#0c0c0c;fill-opacity:1;stroke:#ffffff;stroke-width:5.29134;stroke-dasharray:none"
       d="m 593.41114,319.93312 c 20.26977,-14.83845 40.26365,-13.92467 60.02973,0 l -4.4217,49.3451 h -51.18634 z"
       sodipodi:nodetypes="ccccc" />
    <ellipse
       style="fill:#0c0c0c;fill-opacity:1;stroke:#ffffff;stroke-width:5.29134;stroke-dasharray:none"
       id="ellipse74"
       cx="623.42804"
       cy="372.54358"
       rx="41.110863"
       ry="26.073177" />
    <ellipse
       style="font-variation-settings:'wdth' 83, 'wght' 532;fill:#ffffff;fill-opacity:1;stroke:#0c0c0c;stroke-width:5.29135;stroke-dasharray:none;stroke-opacity:1"
       id="ellipse75"
       cx="649.68481"
       cy="342.77078"
       transform="matrix(0.99730707,0.07333901,-0.07149718,0.9974408,0,0)"
       rx="32.23793"
       ry="32.994152" />
    <path
       id="path75"
       style="font-variation-settings:'wdth' 83, 'wght' 532;fill:#ffffff;fill-opacity:1;stroke:none;stroke-width:5.29134;stroke-dasharray:none"
       d="m 616.24778,433.27925 c 2.25985,8.09587 12.13779,8.05294 14.36057,-0.0625 -4.53742,3.45093 -9.29191,3.91673 -14.36057,0.0625 z"
       sodipodi:nodetypes="ccc" />
    <path
       id="path76"
       style="font-variation-settings:'wdth' 83, 'wght' 532;fill:#0c0c0c;fill-opacity:1;stroke:#0c0c0c;stroke-width:9.07084;stroke-dasharray:none;stroke-opacity:1"
       d="m 607.93619,421.07767 c 1.11552,4.05216 8.29332,10.18739 15.47893,10.18309 7.1856,-0.004 14.37898,-6.14816 15.5048,-10.20163 -11.657,5.20814 -19.40335,5.08329 -30.98373,0.0185 z"
       sodipodi:nodetypes="cscc" />
    <path
       id="path77"
       style="font-variation-settings:'wdth' 83, 'wght' 532;fill:#ffffff;fill-opacity:1;stroke:none;stroke-width:5.29134;stroke-dasharray:none"
       d="m 607.93619,421.07767 c 1.11552,4.05216 8.29332,10.18739 15.47893,10.18309 7.1856,-0.004 14.37898,-6.14816 15.5048,-10.20163 -11.657,5.20814 -19.40335,5.08329 -30.98373,0.0185 z"
       sodipodi:nodetypes="cscc" />
    <path
       style="font-variation-settings:'wdth' 83, 'wght' 532;fill:#656565;fill-opacity:1;stroke-width:5.29134;stroke-dasharray:none"
       d="m 615.4222,394.36109 c -4.55812,3.53235 -13.37627,2.6214 -18.30013,0.70479 1.55779,6.41158 4.03299,11.05131 6.9182,11.33175 4.45602,0.43312 9.57752,-6.7263 11.38193,-12.03654 z"
       id="path78"
       sodipodi:nodetypes="ccsc" />
    <ellipse
       style="fill:#0c0c0c;fill-opacity:1;stroke:none;stroke-width:11.3391"
       id="ellipse78"
       cx="-685.44781"
       cy="209.63345"
       rx="10.620854"
       ry="19.241549"
       transform="matrix(-0.96421402,-0.26512511,-0.2526419,0.96755985,0,0)" />
    <path
       style="font-variation-settings:'wdth' 83, 'wght' 532;fill:#656565;fill-opacity:1;stroke-width:5.29134;stroke-dasharray:none"
       d="m 631.48831,394.22302 c 4.55814,3.53235 13.37627,2.6214 18.30015,0.70479 -1.5578,6.41158 -4.08739,11.35958 -6.97258,11.64001 -4.45602,0.43312 -9.52314,-7.03455 -11.32757,-12.3448 z"
       id="path79"
       sodipodi:nodetypes="ccsc" />
    <ellipse
       style="fill:#0c0c0c;fill-opacity:1;stroke:none;stroke-width:11.3391"
       id="ellipse79"
       cx="521.27692"
       cy="540.29309"
       rx="10.620854"
       ry="19.241549"
       transform="matrix(0.96421402,-0.2651251,0.2526419,0.96755985,0,0)" />
    <path
       sodipodi:type="star"
       style="fill:#000000;stroke:none;stroke-width:6.77763"
       id="path80"
       inkscape:flatsided="true"
       sodipodi:sides="3"
       sodipodi:cx="65.545296"
       sodipodi:cy="40.60688"
       sodipodi:r1="2.3499987"
       sodipodi:r2="1.8959759"
       sodipodi:arg1="-1.5707963"
       sodipodi:arg2="-0.52359878"
       inkscape:rounded="0.05"
       inkscape:randomized="0"
       d="m 65.545296,38.256881 c 0.203516,0 2.136916,3.348749 2.035158,3.524999 -0.101758,0.176249 -3.968559,0.176249 -4.070317,-10e-7 -0.101758,-0.176249 1.831643,-3.524998 2.035159,-3.524998 z"
       inkscape:transform-center-y="-0.10799408"
       transform="matrix(1.6514619,0,0,1.6947028,515.18253,329.52704)"
       inkscape:transform-center-x="2.3842339e-06" />
    <rect
       style="fill:#ffffff;stroke-width:5.07201"
       id="rect2"
       width="6.3053932"
       height="18.301805"
       x="620.27472"
       y="258.36398"
       ry="5.1126995"
       rx="6.6653881" />
    <rect
       style="fill:#ffffff;stroke-width:5.072"
       id="rect7"
       width="6.3053932"
       height="18.301807"
       x="342.57452"
       y="534.1947"
       ry="5.1057067"
       rx="6.6745358"
       transform="rotate(-32.089687)" />
    <rect
       style="fill:#ffffff;stroke-width:5.072"
       id="rect8"
       width="6.3053932"
       height="18.301807"
       x="-42.840794"
       y="624.62115"
       ry="5.1023564"
       rx="6.6789293"
       transform="rotate(-64.812845)" />
    <rect
       style="fill:#ffffff;stroke-width:5.07201"
       id="rect9"
       width="6.3053932"
       height="18.301805"
       x="-307.68231"
       y="558.89514"
       ry="5.1035876"
       rx="6.6773095"
       transform="rotate(-86.246866)" />
    <rect
       style="fill:#ffffff;stroke-width:5.072"
       id="rect10"
       width="6.3053932"
       height="18.301807"
       x="-582.76746"
       y="314.8165"
       ry="5.110549"
       rx="6.6682086"
       transform="rotate(-116.24687)" />
    <rect
       style="fill:#ffffff;stroke-width:5.072"
       id="rect11"
       width="6.3053932"
       height="18.301807"
       x="-713.7829"
       y="-128.19206"
       ry="5.1057067"
       rx="6.6745358"
       transform="matrix(-0.84721756,-0.53124609,-0.53124606,0.84721758,0,0)" />
    <rect
       style="fill:#ffffff;stroke-width:5.072"
       id="rect12"
       width="6.3053932"
       height="18.301807"
       x="-573.47302"
       y="-503.6861"
       ry="5.1023564"
       rx="6.6789293"
       transform="matrix(-0.42557643,-0.90492248,-0.90492247,0.42557646,0,0)" />
    <rect
       style="fill:#ffffff;stroke-width:5.07201"
       id="rect13"
       width="6.3053932"
       height="18.301805"
       x="-390.55331"
       y="-685.20569"
       ry="5.1035876"
       rx="6.6773095"
       transform="matrix(-0.06545771,-0.99785534,-0.99785534,0.06545774,0,0)" />
    <rect
       style="fill:#ffffff;stroke-width:5.072"
       id="rect14"
       width="6.3053932"
       height="18.301807"
       x="-28.181887"
       y="-801.91998"
       ry="5.110549"
       rx="6.6682086"
       transform="matrix(0.44223962,-0.89689694,-0.89689694,-0.44223962,0,0)" />
  </g>
</svg>
